# xmcd CD database file
#
# Track frame offsets:
#	150
#	20250
#	44230
#	63953
#	90611
#	115063
#	135538
#	155430
#	175340
#	195517
#	215791
#	237430
#
# Disc length: 3416 seconds
#
# Revision: 0
# Processed by: cddbd v1.5.1PL0 Copyright (c) Steve Scherf et al.
# Submitted via: CDex 1.51
#
DISCID=a70d560c
DTITLE=Matt Jordan feat. Kelli Sae - Let The Feeling Flow
DYEAR=2005
DGENRE=Jazz
TTITLE0=Who I Wanna Love
TTITLE1=I Don't Miss You
TTITLE2=Those Special Things
TTITLE3=Livin' On The Edge Of Love
TTITLE4=T.G.I.F.
TTITLE5=Nothing We Can't Do
TTITLE6=Gotta Get Up
TTITLE7=If I Still Loved You
TTITLE8=After The Pencil
TTITLE9=Broken Promises
TTITLE10=Let The Feeling Flow
TTITLE11=Invitation To Paradise
EXTD=YEAR: 2005
EXTT0=
EXTT1=
EXTT2=
EXTT3=
EXTT4=
EXTT5=
EXTT6=
EXTT7=
EXTT8=
EXTT9=
EXTT10=
EXTT11=
PLAYORDER=
